<svg xmlns="http://www.w3.org/2000/svg" width="318.007" height="23.627"><defs><style>.a{fill:#bcbec0}</style></defs><path d="M106.331 16.577c-1.9 1.7-2.13 1.7-4.725 1.7H99.94L96.067.077H84.176l5.19 23.511h12.627c6.817 0 6.74-.039 11.233-4.028C122.134 11.619 135.033.077 135.033.077h-10.657c-.077 0-16.81 15.416-18.05 16.5M15.579.31C6.822.93 3.494 4.029 1.322 9.103c-1.7 3.95-1.7 7.552-.345 10.036 1.123 2.092 4.067 3.718 7.669 4.106a75.41 75.41 0 009.528.387l12.588-.039h7.514c1.937 0 1.9-.039 2.4-1.046.426-.93 1.472-3.68 1.472-3.68H24.217a57.872 57.872 0 01-7.243-.349c-2.092-.232-3.447-.93-4.144-2.169-.968-1.743.039-4.88.775-6.507 1.78-3.838 4.027-4.803 8.946-5.078 2.9-.155 5-.194 7.553-.194h12.395a4.084 4.084 0 003.912-2.518c.426-.928.891-2.013.891-2.013H25.03c-2.982 0-6.7.077-9.451.271M190.653.039c-2.982 0-6.7.039-9.451.232-8.757.62-12.123 3.719-14.257 8.793-1.7 3.99-1.7 7.592-.349 10.032 1.123 2.092 4.067 3.718 7.669 4.106a75.41 75.41 0 009.528.387l12.588-.039h7.514c1.937 0 1.9-.039 2.4-1.046.426-.93 1.472-3.68 1.472-3.68H189.84a57.872 57.872 0 01-7.243-.349c-2.092-.232-3.447-.93-4.144-2.169-.968-1.743.039-4.88.775-6.507 1.782-3.835 4.028-4.8 8.947-5.074 2.9-.155 5-.194 7.553-.194h12.395a4.084 4.084 0 003.912-2.518c.426-.93.891-2.014.891-2.014zM53.15 23.549h11.969L73.601.077H61.633zm84.438 0h11.969L158.078.077h-12.007z"/><path class="a" d="M309.718 4.571c-.968-2.092-3.68-3.757-7.088-4.144a67.754 67.754 0 00-9.064-.388h-4.338c-2.828 0-6.391.039-9.025.232-8.366.62-11.7 3.718-14.021 8.792-1.82 3.99-2.014 7.592-.891 10.032.968 2.092 3.68 3.718 7.088 4.106a67.753 67.753 0 009.064.387l7.863-.039c1.937-.039 3.873-.116 5.461-.232 8.366-.62 11.7-3.718 14.021-8.792 1.859-3.912 2.053-7.514.93-9.954zm-12.549 8.25c-1.859 3.757-3.989 4.725-8.405 5.035h-8.172c-2.014 0-3.215-.155-3.835-1.394-.813-1.743.271-3.951 1.085-5.578 1.859-3.757 3.99-4.725 8.405-5.035h8.173c2.014 0 3.215.155 3.835 1.394.85 1.705-.273 3.912-1.087 5.578zM247.242.039l-8.018 7.4h6.391l-6.391 16.188h11.388L259.946.039z"/><path class="a" d="M309.718 4.571c-.968-2.092-3.68-3.757-7.088-4.144a67.754 67.754 0 00-9.064-.388h-4.338c-2.828 0-6.391.039-9.025.232-8.366.62-11.7 3.718-14.021 8.792-1.82 3.99-2.014 7.592-.891 10.032.968 2.092 3.68 3.718 7.088 4.106a67.753 67.753 0 009.064.387l7.863-.039c1.937-.039 3.873-.116 5.461-.232 8.366-.62 11.7-3.718 14.021-8.792 1.859-3.912 2.053-7.514.93-9.954zm-12.549 8.25c-1.859 3.757-3.989 4.725-8.405 5.035h-8.172c-2.014 0-3.215-.155-3.835-1.394-.813-1.743.271-3.951 1.085-5.578 1.859-3.757 3.99-4.725 8.405-5.035h8.173c2.014 0 3.215.155 3.835 1.394.85 1.705-.273 3.912-1.087 5.578zM247.242.039l-8.018 7.4h6.391l-6.391 16.188h11.388L259.946.039z"/><path d="M236.629 13.711a1.448 1.448 0 01-.581.5 1.519 1.519 0 01-.7.155 2.029 2.029 0 01-2.247-2.247 3.651 3.651 0 01.194-1.162 2.976 2.976 0 01.542-.968 2.478 2.478 0 012.014-.891 3.021 3.021 0 01.852.116 2.909 2.909 0 01.7.31 2.04 2.04 0 01.465.542 1.8 1.8 0 01.155.813h-1.119a.808.808 0 00-.271-.658 1.378 1.378 0 00-.736-.194 1.484 1.484 0 00-.736.194 1.564 1.564 0 00-.5.5 2.913 2.913 0 00-.31.7 2.637 2.637 0 00-.116.736 1.964 1.964 0 00.078.5 1.433 1.433 0 00.194.426.618.618 0 00.349.271 1.922 1.922 0 00.5.116 2.286 2.286 0 00.542-.077.8.8 0 00.387-.232.843.843 0 00.271-.349 4.528 4.528 0 00.194-.426h-1.162l.194-.813h2.13l-.581 2.75h-.7v-.62zm14.757-4.57l-.194.93h-2.75l-.232 1.085h2.556l-.194.852h-2.556l-.271 1.239h2.789l-.194.93h-3.912l1.046-5.074h3.912zm11.581 0a1.606 1.606 0 01.62.077 1.3 1.3 0 01.465.232 1.214 1.214 0 01.31.426 1.474 1.474 0 01.116.62 2.262 2.262 0 01-.077.5 1.245 1.245 0 01-.62.736 2.184 2.184 0 01-.465.155.78.78 0 01.426.349 1.238 1.238 0 01.116.542v1.2c0 .077.039.194.039.271h-1.085c0-.077-.039-.116-.039-.155v-.153a2.214 2.214 0 01.039-.5 2.2 2.2 0 00.039-.5.754.754 0 00-.039-.31.386.386 0 00-.155-.194.551.551 0 00-.232-.077c-.078 0-.194-.039-.31-.039h-1.046l-.426 1.975h-1.123l1.046-5.074h2.4zm-.775 2.285a1.453 1.453 0 00.426-.039.729.729 0 00.348-.155c.078-.077.194-.155.271-.232a.576.576 0 00.077-.349.925.925 0 00-.077-.349.467.467 0 00-.194-.194.56.56 0 00-.271-.077c-.116 0-.194-.039-.31-.039h-1.042l-.31 1.433zm14.293-2.285l.852 5.074h-1.123l-.155-1.123h-1.9l-.62 1.123h-1.16l2.982-5.074h1.123zm-.5 3.1l-.232-2.014-1.089 2.014zm13.747-2.054a.911.911 0 00-.659-.232 1.484 1.484 0 00-.736.194 1.564 1.564 0 00-.5.5 2.91 2.91 0 00-.31.7 2.634 2.634 0 00-.116.736 1.964 1.964 0 00.077.5 1.433 1.433 0 00.194.426.618.618 0 00.349.271 1.921 1.921 0 00.5.116 1.391 1.391 0 00.426-.077.7.7 0 00.349-.232 1.044 1.044 0 00.271-.31 1.162 1.162 0 00.155-.387h1.123a3.836 3.836 0 01-.387.891 2.476 2.476 0 01-.5.581 1.966 1.966 0 01-.62.349 2.5 2.5 0 01-.775.116l-.194.271c.039-.039.155-.039.232-.039a.491.491 0 01.232.039.3.3 0 01.194.077.3.3 0 01.155.155.491.491 0 01.039.232.923.923 0 01-.078.349 1.023 1.023 0 01-.194.232c-.077.077-.155.077-.271.116a.853.853 0 01-.31.039h-.31a.491.491 0 01-.232-.039c-.078 0-.116-.039-.194-.039s-.116-.039-.194-.077l.155-.349a.56.56 0 00.271.077.962.962 0 00.349.039.291.291 0 00.194-.039.281.281 0 000-.387.291.291 0 00-.194-.039.574.574 0 00-.271.039l-.155-.155.349-.5a1.848 1.848 0 01-1.394-.658 2.4 2.4 0 01-.5-1.549 3.649 3.649 0 01.194-1.162 2.974 2.974 0 01.542-.968 2.8 2.8 0 01.852-.658 2.83 2.83 0 011.162-.232 2.574 2.574 0 01.813.116 2.156 2.156 0 01.659.349 1.619 1.619 0 01.426.581 1.8 1.8 0 01.155.813h-1.129a.76.76 0 00-.194-.776zm13.44-1.046l.852 5.074h-1.123l-.155-1.123h-1.9l-.62 1.123h-1.16l2.982-5.074h1.123zm-.5 3.1l-.232-2.014-1.084 2.014zm1.239-4.222c-.039.077-.077.194-.116.271-.078.077-.116.155-.232.194a.773.773 0 01-.349.077.853.853 0 01-.31-.039c-.077-.039-.194-.039-.271-.077a.718.718 0 00-.271-.077.491.491 0 00-.232-.039.3.3 0 00-.194.077.327.327 0 00-.077.232h-.426c.039-.116.039-.194.078-.31a.623.623 0 01.155-.271.7.7 0 01.271-.194 1.145 1.145 0 01.387-.077.491.491 0 01.232.039c.077.039.155.039.232.077a.55.55 0 00.232.077.491.491 0 00.232.039.327.327 0 00.232-.077.293.293 0 00.077-.155h.5c-.076.038-.115.154-.153.231zm9.293 2.903a2.623 2.623 0 01.542-.968 2.8 2.8 0 01.852-.658 2.83 2.83 0 011.162-.232 2.344 2.344 0 01.93.155 1.62 1.62 0 01.7.426 2.2 2.2 0 01.465.7 2.344 2.344 0 01.155.93 4.1 4.1 0 01-.194 1.2 3.162 3.162 0 01-.542 1.007 3.05 3.05 0 01-.852.7 2.32 2.32 0 01-1.162.232 2.029 2.029 0 01-2.25-2.251 4.157 4.157 0 01.194-1.241zm.968 1.666a1.433 1.433 0 00.194.426.619.619 0 00.349.271 1.921 1.921 0 00.5.116 1.338 1.338 0 00.7-.194 1.564 1.564 0 00.5-.5 1.915 1.915 0 00.31-.7 2.632 2.632 0 00.116-.736 1.964 1.964 0 00-.077-.5 1.433 1.433 0 00-.194-.426.844.844 0 00-.349-.271 1.125 1.125 0 00-.542-.116 1.484 1.484 0 00-.736.194 1.563 1.563 0 00-.5.5 2.905 2.905 0 00-.31.7 2.63 2.63 0 00-.116.736 1.474 1.474 0 01.155.5z"/></svg>