<svg xmlns="http://www.w3.org/2000/svg" width="16" height="12.58"><defs><style>.b{fill:#010002}</style></defs><g opacity=".12"><path class="b" d="M1.265.743l5.763 5.128a1.354 1.354 0 00.971.316 1.351 1.351 0 00.976-.316L14.738.744c.462-.408.357-.743-.229-.743H1.495C.909 0 .804.335 1.265.743z"/><path class="b" d="M15.15 2.096l-6.3 5.371a1.391 1.391 0 01-1.7 0L.85 2.096C.383 1.698 0 1.911 0 2.57v8.808a1.142 1.142 0 001.067 1.2h13.866a1.142 1.142 0 001.067-1.2V2.57c0-.659-.383-.872-.85-.474z"/></g></svg>