<svg xmlns="http://www.w3.org/2000/svg" width="17.224" height="17.185"><path d="M16.838 13.592l-2.66-2.66a1.387 1.387 0 00-1.956.037l-1.34 1.34-.264-.147a13.336 13.336 0 01-3.223-2.331 13.41 13.41 0 01-2.337-3.225c-.05-.09-.1-.176-.144-.258l.9-.9.442-.442a1.386 1.386 0 00.035-1.96L3.631.386a1.386 1.386 0 00-1.955.036l-.75.754.02.02a4.335 4.335 0 00-.617 1.09 4.518 4.518 0 00-.275 1.106c-.354 2.914.979 5.573 4.591 9.184 4.992 4.991 9.014 4.614 9.188 4.6a4.5 4.5 0 001.108-.278 4.321 4.321 0 001.086-.615l.016.015.759-.744a1.388 1.388 0 00.036-1.962z" opacity=".12"/></svg>