<svg xmlns="http://www.w3.org/2000/svg" width="38.997" height="38.979"><defs><style>.a{fill:#c5c5c5}</style></defs><path class="a" d="M35.268 33.047a17.212 17.212 0 00-3.051-4.067 14.349 14.349 0 00-4.067-3.052.745.745 0 00-.847.169l-2.2 2.2a1.828 1.828 0 01-1.525.508c-2.2 0-5.423-2.034-8.474-4.915-3.559-3.559-6.271-8.135-4.406-10l2.2-2.2c.169-.169.339-.678.169-.847a14.349 14.349 0 00-3.051-4.067 17.212 17.212 0 00-4.067-3.048 1.27 1.27 0 00-.847.169L.356 8.643c-.846.847-.169 3.385 1.864 6.609a69.178 69.178 0 009.66 11.863c7.8 7.8 14.575 11.863 17.456 11.863a1.433 1.433 0 001.017-.339l4.745-4.745a.745.745 0 00.17-.847zm-.509-28.81A15.016 15.016 0 0024.252 0a1.337 1.337 0 00-1.356 1.356 1.247 1.247 0 001.356 1.356 12.044 12.044 0 018.644 3.559 11.767 11.767 0 013.559 8.643 1.337 1.337 0 001.356 1.356c.847 0 1.186-.847 1.186-1.525a15.016 15.016 0 00-4.238-10.508z"/><path class="a" d="M22.727 7.627a8.6 8.6 0 016.1 2.542 8.7 8.7 0 012.542 6.271 1.337 1.337 0 001.356 1.356c.847 0 1.186-.678 1.186-1.525a10.753 10.753 0 00-3.389-7.965 11.03 11.03 0 00-7.964-3.391 1.337 1.337 0 00-1.356 1.356 1.384 1.384 0 001.525 1.356z"/><path class="a" d="M21.032 12.541a5.221 5.221 0 015.423 5.423 1.337 1.337 0 001.356 1.356 1.247 1.247 0 001.356-1.356 7.684 7.684 0 00-2.373-5.593 7.975 7.975 0 00-5.592-2.372 1.337 1.337 0 00-1.356 1.356 1.071 1.071 0 001.186 1.186z"/></svg>